<svg width="30" height="30" viewBox="0 0 30 30" fill="none" xmlns="http://www.w3.org/2000/svg">
<circle cx="15" cy="15" r="15" fill="white"/>
<path d="M14.9978 12.2488C13.4829 12.2488 12.2467 13.4851 12.2467 15C12.2467 16.5149 13.4829 17.7512 14.9978 17.7512C16.5127 17.7512 17.7489 16.5149 17.7489 15C17.7489 13.4851 16.5127 12.2488 14.9978 12.2488ZM23.2491 15C23.2491 13.8607 23.2594 12.7318 23.1954 11.5946C23.1314 10.2737 22.8301 9.10139 21.8642 8.13549C20.8963 7.16752 19.7261 6.86826 18.4052 6.80428C17.266 6.74029 16.137 6.75061 14.9998 6.75061C13.8606 6.75061 12.7317 6.74029 11.5945 6.80428C10.2736 6.86826 9.10135 7.16958 8.13546 8.13549C7.16751 9.10345 6.86825 10.2737 6.80427 11.5946C6.74029 12.7338 6.75061 13.8628 6.75061 15C6.75061 16.1372 6.74029 17.2682 6.80427 18.4054C6.86825 19.7263 7.16958 20.8986 8.13546 21.8645C9.10341 22.8325 10.2736 23.1317 11.5945 23.1957C12.7337 23.2597 13.8627 23.2494 14.9998 23.2494C16.1391 23.2494 17.268 23.2597 18.4052 23.1957C19.7261 23.1317 20.8983 22.8304 21.8642 21.8645C22.8322 20.8965 23.1314 19.7263 23.1954 18.4054C23.2615 17.2682 23.2491 16.1393 23.2491 15ZM14.9978 19.233C12.6553 19.233 10.7648 17.3425 10.7648 15C10.7648 12.6575 12.6553 10.767 14.9978 10.767C17.3403 10.767 19.2308 12.6575 19.2308 15C19.2308 17.3425 17.3403 19.233 14.9978 19.233ZM19.4041 11.5822C18.8572 11.5822 18.4155 11.1405 18.4155 10.5936C18.4155 10.0467 18.8572 9.60498 19.4041 9.60498C19.951 9.60498 20.3927 10.0467 20.3927 10.5936C20.3929 10.7235 20.3674 10.8521 20.3178 10.9721C20.2682 11.0921 20.1953 11.2012 20.1035 11.293C20.0117 11.3848 19.9026 11.4576 19.7826 11.5073C19.6626 11.5569 19.534 11.5824 19.4041 11.5822Z" fill="black"/>
</svg>
